<svg width="465" height="473" viewBox="0 0 465 473" fill="none" xmlns="http://www.w3.org/2000/svg" xmlns:xlink="http://www.w3.org/1999/xlink">
<g clip-path="url(#clip0)">
<mask id="mask0" style="mask-type:alpha" maskUnits="userSpaceOnUse" x="0" y="-27" width="433" height="433">
<circle cx="216.5" cy="189.5" r="216.5" fill="#C4C4C4"/>
</mask>
<g mask="url(#mask0)"> 

<path   d="M119.138 139.957C154.699 108.616 205.328 97.0962 258.399 92.6846C311.696 88.0304 367.433 90.4839 404.409 118.658C441.621 146.822 460.071 200.706 455.544 248.844C450.781 296.992 422.816 339.638 388.575 379.532C354.581 419.648 314.086 457.255 268.874 462.72C223.887 467.942 173.71 441.043 135.178 404.326C96.6359 367.377 69.4914 320.389 66.4065 271.419C63.0853 222.46 83.5771 171.297 119.138 139.957Z" fill="#CACCFD">
  <animateTransform
    attributeName="transform"
    type="rotate"
    from="0 275 295"
    to="360 275 295"
    dur="9s"
    repeatCount="indefinite" />
</path>
<rect x="162" y="16" width="182" height="372" fill="url(#pattern0)"/>
</g>
</g>
<defs>
<pattern id="pattern0" patternContentUnits="objectBoundingBox" width="1" height="1">
<use xlink:href="#image0" transform="translate(-0.010989) scale(0.00195781 0.000957854)"/>
</pattern>
<clipPath id="clip0">
<rect width="465" height="473" fill="white"/>
</clipPath>
<image id="image0" width="522" height="1044"  src="https://res.cloudinary.com/hafari/image/upload/v1633706883/rasyid_ztgotf.png"/>
</defs>
</svg>
